<svg width="106" height="109" viewBox="0 0 106 109" fill="none" xmlns="http://www.w3.org/2000/svg">
<g id="element-1">
<circle id="Ellipse 3" cx="35.9841" cy="4.55065" r="3.44603" transform="rotate(24.0303 35.9841 4.55065)" fill="#6244DB" fill-opacity="0.2"/>
<circle id="Ellipse 8" cx="28.1258" cy="22.1759" r="3.44603" transform="rotate(24.0303 28.1258 22.1759)" fill="#6244DB" fill-opacity="0.2"/>
<circle id="Ellipse 13" cx="20.2674" cy="39.8011" r="3.44603" transform="rotate(24.0303 20.2674 39.8011)" fill="#6244DB" fill-opacity="0.2"/>
<circle id="Ellipse 18" cx="12.409" cy="57.4263" r="3.44603" transform="rotate(24.0303 12.409 57.4263)" fill="#6244DB" fill-opacity="0.2"/>
<circle id="Ellipse 23" cx="4.55065" cy="75.0515" r="3.44603" transform="rotate(24.0303 4.55065 75.0515)" fill="#6244DB" fill-opacity="0.2"/>
<circle id="Ellipse 4" cx="52.3505" cy="11.8478" r="3.44603" transform="rotate(24.0303 52.3505 11.8478)" fill="#6244DB" fill-opacity="0.2"/>
<circle id="Ellipse 9" cx="44.4921" cy="29.473" r="3.44603" transform="rotate(24.0303 44.4921 29.473)" fill="#6244DB" fill-opacity="0.2"/>
<circle id="Ellipse 14" cx="36.6337" cy="47.0983" r="3.44603" transform="rotate(24.0303 36.6337 47.0983)" fill="#6244DB" fill-opacity="0.2"/>
<circle id="Ellipse 19" cx="28.7753" cy="64.7235" r="3.44603" transform="rotate(24.0303 28.7753 64.7235)" fill="#6244DB" fill-opacity="0.2"/>
<circle id="Ellipse 24" cx="20.9169" cy="82.3487" r="3.44603" transform="rotate(24.0303 20.9169 82.3487)" fill="#6244DB" fill-opacity="0.2"/>
<circle id="Ellipse 5" cx="68.7169" cy="19.1449" r="3.44603" transform="rotate(24.0303 68.7169 19.1449)" fill="#6244DB" fill-opacity="0.2"/>
<circle id="Ellipse 10" cx="60.8584" cy="36.7701" r="3.44603" transform="rotate(24.0303 60.8584 36.7701)" fill="#6244DB" fill-opacity="0.2"/>
<circle id="Ellipse 15" cx="53" cy="54.3953" r="3.44603" transform="rotate(24.0303 53 54.3953)" fill="#6244DB" fill-opacity="0.2"/>
<circle id="Ellipse 20" cx="45.1416" cy="72.0205" r="3.44603" transform="rotate(24.0303 45.1416 72.0205)" fill="#6244DB" fill-opacity="0.2"/>
<circle id="Ellipse 25" cx="37.2829" cy="89.6457" r="3.44603" transform="rotate(24.0303 37.2829 89.6457)" fill="#6244DB" fill-opacity="0.2"/>
<circle id="Ellipse 6" cx="85.0831" cy="26.442" r="3.44603" transform="rotate(24.0303 85.0831 26.442)" fill="#6244DB" fill-opacity="0.2"/>
<circle id="Ellipse 11" cx="77.2247" cy="44.0673" r="3.44603" transform="rotate(24.0303 77.2247 44.0673)" fill="#6244DB" fill-opacity="0.2"/>
<circle id="Ellipse 16" cx="69.3663" cy="61.6925" r="3.44603" transform="rotate(24.0303 69.3663 61.6925)" fill="#6244DB" fill-opacity="0.2"/>
<circle id="Ellipse 21" cx="61.5079" cy="79.3177" r="3.44603" transform="rotate(24.0303 61.5079 79.3177)" fill="#6244DB" fill-opacity="0.2"/>
<circle id="Ellipse 26" cx="53.6493" cy="96.9429" r="3.44603" transform="rotate(24.0303 53.6493 96.9429)" fill="#6244DB" fill-opacity="0.2"/>
<circle id="Ellipse 7" cx="101.449" cy="33.7391" r="3.44603" transform="rotate(24.0303 101.449 33.7391)" fill="#6244DB" fill-opacity="0.2"/>
<circle id="Ellipse 12" cx="93.591" cy="51.3644" r="3.44603" transform="rotate(24.0303 93.591 51.3644)" fill="#6244DB" fill-opacity="0.2"/>
<circle id="Ellipse 17" cx="85.7326" cy="68.9896" r="3.44603" transform="rotate(24.0303 85.7326 68.9896)" fill="#6244DB" fill-opacity="0.2"/>
<circle id="Ellipse 22" cx="77.8742" cy="86.6149" r="3.44603" transform="rotate(24.0303 77.8742 86.6149)" fill="#6244DB" fill-opacity="0.2"/>
<circle id="Ellipse 27" cx="70.0157" cy="104.24" r="3.44603" transform="rotate(24.0303 70.0157 104.24)" fill="#6244DB" fill-opacity="0.2"/>
</g>
</svg>
