<svg width="163" height="168" viewBox="0 0 163 168" fill="none" xmlns="http://www.w3.org/2000/svg">
<g id="element-2">
<rect id="Rectangle 13" x="16.8923" y="9.01245" width="122.864" height="113" transform="rotate(8.43023 16.8923 9.01245)" fill="#6244DB" fill-opacity="0.1"/>
<circle id="Ellipse 28" cx="31.9612" cy="6.91734" r="6.01429" transform="rotate(9.41761 31.9612 6.91734)" fill="#6244DB" fill-opacity="0.1"/>
<circle id="Ellipse 29" cx="26.4503" cy="40.1435" r="6.01429" transform="rotate(9.41761 26.4503 40.1435)" fill="#6244DB" fill-opacity="0.1"/>
<circle id="Ellipse 30" cx="20.9393" cy="73.3696" r="6.01429" transform="rotate(9.41761 20.9393 73.3696)" fill="#6244DB" fill-opacity="0.1"/>
<circle id="Ellipse 31" cx="15.4284" cy="106.596" r="6.01429" transform="rotate(9.41761 15.4284 106.596)" fill="#6244DB" fill-opacity="0.1"/>
<circle id="Ellipse 32" cx="9.91732" cy="139.822" r="6.01429" transform="rotate(9.41761 9.91732 139.822)" fill="#6244DB" fill-opacity="0.1"/>
<circle id="Ellipse 33" cx="62.8141" cy="12.0347" r="6.01429" transform="rotate(9.41761 62.8141 12.0347)" fill="#6244DB" fill-opacity="0.1"/>
<circle id="Ellipse 34" cx="57.3031" cy="45.2608" r="6.01429" transform="rotate(9.41761 57.3031 45.2608)" fill="#6244DB" fill-opacity="0.1"/>
<circle id="Ellipse 35" cx="51.792" cy="78.4869" r="6.01429" transform="rotate(9.41761 51.792 78.4869)" fill="#6244DB" fill-opacity="0.1"/>
<circle id="Ellipse 36" cx="46.2812" cy="111.713" r="6.01429" transform="rotate(9.41761 46.2812 111.713)" fill="#6244DB" fill-opacity="0.1"/>
<circle id="Ellipse 37" cx="40.7702" cy="144.939" r="6.01429" transform="rotate(9.41761 40.7702 144.939)" fill="#6244DB" fill-opacity="0.1"/>
<circle id="Ellipse 38" cx="93.667" cy="17.1521" r="6.01429" transform="rotate(9.41761 93.667 17.1521)" fill="#6244DB" fill-opacity="0.1"/>
<circle id="Ellipse 39" cx="88.156" cy="50.3782" r="6.01429" transform="rotate(9.41761 88.156 50.3782)" fill="#6244DB" fill-opacity="0.1"/>
<circle id="Ellipse 40" cx="82.645" cy="83.6045" r="6.01429" transform="rotate(9.41761 82.645 83.6045)" fill="#6244DB" fill-opacity="0.1"/>
<circle id="Ellipse 41" cx="77.1339" cy="116.83" r="6.01429" transform="rotate(9.41761 77.1339 116.83)" fill="#6244DB" fill-opacity="0.1"/>
<circle id="Ellipse 42" cx="71.6227" cy="150.056" r="6.01429" transform="rotate(9.41761 71.6227 150.056)" fill="#6244DB" fill-opacity="0.1"/>
<circle id="Ellipse 43" cx="124.52" cy="22.2695" r="6.01429" transform="rotate(9.41761 124.52 22.2695)" fill="#6244DB" fill-opacity="0.1"/>
<circle id="Ellipse 44" cx="119.009" cy="55.4955" r="6.01429" transform="rotate(9.41761 119.009 55.4955)" fill="#6244DB" fill-opacity="0.1"/>
<circle id="Ellipse 45" cx="113.498" cy="88.7217" r="6.01429" transform="rotate(9.41761 113.498 88.7217)" fill="#6244DB" fill-opacity="0.1"/>
<circle id="Ellipse 46" cx="107.987" cy="121.948" r="6.01429" transform="rotate(9.41761 107.987 121.948)" fill="#6244DB" fill-opacity="0.1"/>
<circle id="Ellipse 47" cx="102.475" cy="155.174" r="6.01429" transform="rotate(9.41761 102.475 155.174)" fill="#6244DB" fill-opacity="0.1"/>
<circle id="Ellipse 48" cx="155.373" cy="27.3868" r="6.01429" transform="rotate(9.41761 155.373 27.3868)" fill="#6244DB" fill-opacity="0.1"/>
<circle id="Ellipse 49" cx="149.862" cy="60.613" r="6.01429" transform="rotate(9.41761 149.862 60.613)" fill="#6244DB" fill-opacity="0.1"/>
<circle id="Ellipse 50" cx="144.351" cy="93.8391" r="6.01429" transform="rotate(9.41761 144.351 93.8391)" fill="#6244DB" fill-opacity="0.1"/>
<circle id="Ellipse 51" cx="138.84" cy="127.065" r="6.01429" transform="rotate(9.41761 138.84 127.065)" fill="#6244DB" fill-opacity="0.1"/>
<circle id="Ellipse 52" cx="133.329" cy="160.291" r="6.01429" transform="rotate(9.41761 133.329 160.291)" fill="#6244DB" fill-opacity="0.1"/>
</g>
</svg>
